<svg xmlns="http://www.w3.org/2000/svg" viewBox="0 0 48 48"><title>Planting</title><g id="Planting"><path d="M27,25H15V21.91c7.91,1.12,13.19-5,11.56-12.64a1,1,0,0,0-.77-.77c-4.29-.91-8.63.25-11.1,3.95C13.47,7.24,8.51,4,2.21,5.3a1,1,0,0,0-.77.77C-.18,13.73,5.08,19.83,13,18.71V25H1a1,1,0,0,0-1,1v6a1,1,0,0,0,1,1H2.12L4,47.13A1,1,0,0,0,5,48H23a1,1,0,0,0,1-.87L25.88,33H27a1,1,0,0,0,1-1V26A1,1,0,0,0,27,25ZM24.73,10.33c.89,5.8-2.86,10-8.53,9.71l5.24-5.25A1,1,0,0,0,20,13.38l-5,5C15,12.85,19.21,9.48,24.73,10.33ZM3.27,7.13C9.08,6.23,13.32,10,13,15.69l-5-5A1,1,0,0,0,6.56,12.1l4.74,4.74C5.78,16.9,2.42,12.65,3.27,7.13ZM22.12,46H5.88L4.14,33H23.86ZM26,31H2V27H26Z"/><path d="M39.45.11a1,1,0,0,0-.9,0A15.38,15.38,0,0,0,30,13.94V24a1,1,0,0,0,1,1h5v5.18A3,3,0,0,0,34,33V43a5,5,0,0,0,10,0V33a3,3,0,0,0-2-2.82V25h5a1,1,0,0,0,1-1V13.94A15.38,15.38,0,0,0,39.45.11ZM37,32h4a1,1,0,0,1,1,1v1H36V33A1,1,0,0,1,37,32Zm2,14a3,3,0,0,1-3-3V36h6v7A3,3,0,0,1,39,46Zm1-16H38V25h2Zm6-7H32V13.94A13.4,13.4,0,0,1,39,2.13a13.4,13.4,0,0,1,7,11.81Z"/></g></svg>